{"glyphs":{" ":{"ha":0,"x_min":0,"x_max":0,"o":""},"A":{"ha":1703,"x_min":0,"x_max":0,"o":"m 865 51 l 865 -217 l 1196 -217 b 1203 -224 1200 -217 1203 -219 l 1203 -236 b 1196 -243 1203 -240 1200 -243 l 508 -243 b 500 -236 503 -243 500 -240 l 500 -224 b 508 -217 500 -219 503 -217 l 839 -217 l 839 51 l 333 51 b 196 108 279 51 233 71 b 139 246 158 146 139 192 l 139 744 b 196 882 139 799 158 844 b 333 939 233 919 279 939 l 1371 939 b 1508 882 1425 939 1471 919 b 1564 744 1546 844 1564 799 l 1564 246 b 1508 108 1564 192 1546 146 b 1371 51 1471 71 1425 51 m 333 913 b 215 864 288 913 247 896 b 165 744 182 831 165 790 l 165 246 b 215 128 165 200 182 160 b 333 78 247 94 288 78 l 1371 78 b 1489 128 1417 78 1457 94 b 1538 246 1521 160 1538 200 l 1538 744 b 1489 864 1538 790 1521 831 b 1371 913 1457 896 1417 913 "},"B":{"ha":1885,"x_min":0,"x_max":0,"o":"m 1590 169 l 1738 -21 b 1769 -182 1782 -78 1793 -132 b 1625 -256 1746 -231 1699 -256 l 329 -256 b 185 -182 256 -256 208 -231 b 217 -21 161 -132 172 -78 l 364 168 l 364 783 b 414 903 364 829 381 869 b 532 951 446 935 486 951 l 1421 951 b 1540 903 1467 951 1507 935 b 1590 783 1574 869 1590 829 m 532 925 b 390 783 454 925 390 861 l 390 178 l 1564 178 l 1564 783 b 1421 925 1564 861 1500 925 m 385 151 l 238 -37 b 208 -169 200 -86 190 -131 b 329 -228 226 -208 267 -228 l 1625 -228 b 1746 -169 1688 -228 1728 -208 b 1717 -37 1764 -131 1754 -86 l 1571 151 m 1165 -122 b 1172 -115 1169 -122 1172 -119 l 1172 -104 b 1165 -96 1172 -99 1169 -96 l 788 -96 b 781 -104 783 -96 781 -99 l 781 -115 b 788 -122 781 -119 783 -122 "},"C":{"ha":986,"x_min":0,"x_max":0,"o":"m 615 983 b 779 915 679 983 733 961 b 847 751 825 869 847 815 l 847 -58 b 779 -222 847 -122 825 -176 b 615 -289 733 -267 679 -289 l 371 -289 b 207 -222 307 -289 253 -267 b 139 -58 161 -176 139 -122 l 139 751 b 207 915 139 815 161 869 b 371 983 253 961 307 983 m 371 957 b 226 897 314 957 267 938 b 165 751 186 857 165 808 l 165 -58 b 226 -203 165 -115 186 -162 b 371 -262 267 -243 314 -262 l 615 -262 b 761 -203 672 -262 721 -243 b 821 -58 801 -162 821 -115 l 821 751 b 761 897 821 808 801 857 b 615 957 721 938 672 957 m 613 794 b 619 803 617 794 619 797 l 619 814 b 613 821 619 818 617 821 l 372 821 b 365 814 368 821 365 818 l 365 803 b 372 794 365 797 368 794 m 432 -42 b 433 -164 399 -75 399 -131 b 554 -164 467 -197 519 -197 b 554 -42 588 -131 588 -75 b 432 -42 521 -7 465 -7 m 536 -60 b 553 -103 547 -72 553 -86 b 493 -162 553 -135 526 -162 b 433 -103 460 -162 433 -135 b 536 -60 433 -50 499 -21 "},"D":{"ha":1257,"x_min":0,"x_max":0,"o":"m 899 978 b 1054 914 958 978 1011 957 b 1118 757 1097 871 1118 818 l 1118 -62 b 1054 -218 1118 -122 1097 -175 b 899 -283 1011 -261 958 -283 l 358 -283 b 204 -218 299 -283 247 -261 b 139 -62 161 -175 139 -122 l 139 757 b 204 914 139 818 161 871 b 358 978 247 957 299 978 m 358 951 b 222 894 304 951 260 932 b 165 757 185 857 165 811 l 165 -62 b 222 -200 165 -117 185 -162 b 358 -257 260 -237 304 -257 l 899 -257 b 1036 -200 953 -257 999 -237 b 1092 -62 1074 -162 1092 -117 l 1092 757 b 1036 894 1092 811 1074 857 b 899 951 999 932 953 951 m 689 -56 b 629 -199 739 -106 703 -199 b 544 -114 583 -199 544 -162 b 689 -56 544 -40 638 -4 m 589 -74 b 589 -156 565 -96 565 -132 b 669 -156 611 -178 647 -178 b 669 -74 692 -132 692 -96 b 589 -74 647 -51 611 -51 "},"E":{"ha":990,"x_min":0,"x_max":0,"o":"m 635 961 b 686 976 647 979 665 985 b 713 928 707 967 717 951 l 631 440 l 819 440 b 854 371 854 440 876 400 l 379 -268 b 326 -282 365 -286 347 -292 b 300 -233 306 -272 296 -257 l 382 253 l 194 253 b 160 324 157 253 138 294 m 181 308 b 194 281 171 296 179 281 l 414 281 l 326 -239 b 358 -251 322 -257 347 -267 l 833 386 b 819 414 840 397 835 414 l 600 414 l 686 932 b 656 946 690 950 667 961 "},"F":{"ha":1257,"x_min":0,"x_max":0,"o":"m 139 836 b 181 878 139 860 157 878 l 482 878 b 522 836 504 878 522 860 l 522 282 b 575 190 522 239 540 208 b 682 190 610 172 646 172 b 735 282 717 208 735 239 l 735 836 b 776 878 735 860 753 878 l 1076 878 b 1118 836 1100 878 1118 860 l 1118 282 b 139 282 1118 -362 139 -362 m 496 638 l 496 836 b 482 851 496 846 492 851 l 181 851 b 165 836 171 851 165 846 l 165 638 m 1092 638 l 1092 836 b 1076 851 1092 846 1086 851 l 776 851 b 761 836 767 851 761 846 l 761 638 m 165 282 b 310 -62 165 136 222 11 b 629 -176 397 -135 513 -176 b 947 -62 744 -176 860 -135 b 1092 282 1035 11 1092 136 l 1092 611 l 761 611 l 761 282 b 629 150 761 200 694 150 b 496 282 563 150 496 200 l 496 611 l 165 611 "},"G":{"ha":1364,"x_min":0,"x_max":0,"o":"m 1067 733 b 1225 349 1172 626 1225 499 b 1067 -36 1225 199 1172 71 b 682 -194 960 -142 832 -194 b 299 -36 532 -194 404 -142 b 139 349 192 71 139 199 b 299 733 139 499 192 626 b 682 892 404 839 532 892 b 1067 733 832 892 960 839 m 682 865 b 550 849 636 865 592 860 l 647 469 b 682 474 658 472 669 474 b 807 349 750 474 807 417 b 781 271 807 319 799 294 l 1086 28 b 1199 349 1161 122 1199 229 b 1047 714 1199 492 1149 613 b 682 865 946 815 825 865 m 524 840 b 293 690 433 813 357 763 l 601 446 b 624 460 608 450 615 456 m 276 669 b 165 349 203 576 165 469 b 317 -17 165 206 215 85 b 682 -168 418 -118 539 -168 b 814 -151 728 -168 771 -162 l 715 228 b 682 224 704 225 693 224 b 557 349 614 224 557 281 b 583 426 557 378 565 404 m 682 447 b 583 349 626 447 583 403 b 682 250 583 294 626 250 b 781 349 736 250 781 294 b 682 447 781 403 736 447 m 839 -143 b 1069 8 928 -115 1004 -65 l 761 253 b 740 238 757 249 750 243 "},"H":{"ha":1364,"x_min":0,"x_max":0,"o":"m 682 889 b 1067 731 832 889 960 836 b 1225 346 1172 624 1225 496 b 1067 -39 1225 196 1172 68 b 682 -197 960 -144 832 -197 b 299 -39 533 -197 406 -144 b 139 346 192 68 139 196 b 299 731 139 496 192 624 b 682 889 406 836 533 889 m 317 711 b 165 346 215 610 165 489 b 317 -19 165 203 215 82 b 682 -171 418 -121 539 -171 b 1047 -19 825 -171 946 -121 b 1199 346 1149 82 1199 203 b 1047 711 1199 489 1149 610 b 682 863 946 813 825 863 b 317 711 539 863 418 813 m 496 518 b 538 476 519 518 538 500 b 496 436 538 454 519 436 b 456 476 474 436 456 454 b 496 518 456 500 474 518 m 869 518 b 910 476 892 518 910 500 b 869 436 910 454 892 436 b 828 476 846 436 828 454 b 869 518 828 500 846 518 m 964 190 b 975 193 967 194 971 196 l 985 186 b 986 176 989 183 989 181 b 800 26 940 103 878 53 b 565 26 721 0 643 0 b 379 176 488 53 425 103 b 382 186 376 181 378 185 l 392 193 b 401 190 396 196 399 194 b 964 190 524 -19 843 -19 "},"I":{"ha":1469,"x_min":0,"x_max":0,"o":"m 411 643 l 139 643 l 139 669 l 411 669 l 411 935 l 438 935 l 438 669 l 1017 669 b 1036 665 1024 669 1031 668 l 1293 922 l 1311 904 l 1054 646 b 1058 628 1057 640 1058 635 l 1058 47 l 1331 47 l 1331 21 l 1058 21 l 1058 -244 l 1032 -244 l 1032 21 l 451 21 b 411 63 429 21 411 39 m 438 67 l 1014 643 l 438 643 m 1032 47 l 1032 624 l 456 47 "},"J":{"ha":1374,"x_min":0,"x_max":0,"o":"m 700 861 l 700 360 l 1201 360 l 1064 497 l 1083 515 l 1224 375 b 1224 317 1239 360 1239 333 l 1083 176 l 1064 194 l 1201 333 l 700 333 l 700 -169 l 838 -32 l 857 -50 l 717 -190 b 658 -190 700 -206 674 -206 l 518 -50 l 536 -32 l 674 -169 l 674 333 l 172 333 l 310 194 l 292 176 l 151 317 b 151 375 135 333 135 360 l 292 515 l 310 497 l 172 360 l 674 360 l 674 861 l 536 724 l 518 742 l 658 882 b 717 882 674 899 700 899 l 857 742 l 838 724 "},"K":{"ha":1635,"x_min":0,"x_max":0,"o":"m 1301 776 b 1439 719 1356 776 1401 757 b 1496 582 1476 682 1496 636 l 1496 108 b 1439 -29 1496 54 1476 8 b 1301 -86 1401 -67 1356 -86 l 333 -86 b 196 -29 279 -86 233 -67 b 139 108 158 8 139 54 l 139 582 b 196 719 139 636 158 682 b 333 776 233 757 279 776 m 333 750 b 165 596 244 750 172 683 l 1468 596 b 1301 750 1461 683 1389 750 m 165 569 l 165 375 l 1469 375 l 1469 569 m 165 349 l 165 108 b 215 -11 165 63 182 22 b 333 -60 247 -43 288 -60 l 1301 -60 b 1419 -11 1347 -60 1386 -43 b 1469 108 1453 22 1469 63 l 1469 349 "},"L":{"ha":1792,"x_min":0,"x_max":0,"o":"m 911 546 b 1103 656 968 619 1032 657 b 1279 583 1174 654 1246 614 b 1347 515 1296 568 1318 544 b 1460 424 1392 467 1417 446 b 1592 447 1503 401 1546 410 b 1640 451 1607 460 1624 461 b 1658 406 1657 440 1663 425 b 1536 197 1638 324 1597 254 b 1332 83 1474 140 1406 101 b 1104 88 1258 64 1182 65 b 913 219 1025 110 961 154 b 893 219 903 231 901 233 b 703 88 844 154 781 110 b 474 83 624 65 547 64 b 271 197 400 101 332 140 b 147 406 208 254 168 324 b 165 451 143 425 149 440 b 213 447 181 461 197 460 b 347 425 261 410 304 401 b 457 515 390 447 413 467 l 508 567 b 560 607 519 576 536 590 b 703 656 604 640 649 654 b 894 546 774 657 838 619 b 911 546 904 535 901 535 m 932 529 b 874 529 911 506 892 506 b 703 629 822 597 765 631 b 542 561 640 628 572 589 b 476 496 526 546 504 525 b 350 397 428 446 399 419 b 196 428 300 375 250 385 b 172 413 185 438 171 425 b 289 218 192 336 231 272 b 479 110 346 164 410 128 b 693 113 549 92 619 92 b 871 235 765 133 825 174 b 933 235 892 264 913 264 b 1113 113 979 174 1039 133 b 1326 110 1186 92 1257 92 b 1517 218 1394 128 1458 164 b 1632 413 1575 272 1614 336 b 1608 428 1636 425 1619 438 b 1458 397 1557 385 1507 375 b 1328 496 1410 418 1378 446 b 1264 560 1301 524 1281 544 b 1194 606 1247 575 1224 590 b 1101 629 1164 621 1133 628 b 932 529 1040 631 983 597 "},"M":{"ha":1478,"x_min":0,"x_max":0,"o":"m 1051 485 l 1085 -137 b 953 -185 1094 -256 983 -303 l 822 256 l 615 49 l 654 -136 b 625 -206 661 -168 651 -192 b 553 -186 599 -218 574 -212 l 404 -7 l 219 149 b 201 222 194 172 189 196 b 268 249 214 247 236 256 l 454 210 l 661 417 l 226 546 b 268 681 88 582 156 690 l 890 646 l 1154 910 b 1314 749 1260 1015 1419 854 m 901 619 l 268 654 b 232 651 256 656 244 654 b 233 571 164 639 151 594 l 711 429 l 463 181 l 263 224 b 238 168 224 233 206 197 l 422 13 l 574 -168 b 628 -142 603 -200 638 -182 l 586 58 l 835 307 l 978 -178 b 982 -192 979 -182 981 -187 b 1032 -219 996 -226 1013 -235 b 1058 -139 1051 -204 1060 -178 l 1024 496 l 1296 768 b 1172 890 1376 849 1254 972 "},"N":{"ha":1206,"x_min":0,"x_max":0,"o":"m 882 896 b 1013 842 933 896 976 878 b 1067 710 1049 804 1067 761 l 1067 -4 b 1013 -136 1067 -56 1049 -99 b 882 -190 976 -172 933 -190 l 269 -190 b 232 -151 249 -190 232 -172 l 232 26 l 146 26 b 139 33 142 26 139 29 l 139 46 b 146 53 139 50 142 53 l 232 53 l 232 235 l 146 235 b 139 243 142 235 139 238 l 139 254 b 146 261 139 258 142 261 l 232 261 l 232 444 l 146 444 b 139 451 142 444 139 447 l 139 464 b 146 471 139 468 142 471 l 232 471 l 232 653 l 146 653 b 139 661 142 653 139 656 l 139 672 b 146 679 139 676 142 679 l 232 679 l 232 858 b 269 896 232 879 249 896 m 258 26 l 258 -151 b 269 -164 258 -160 263 -164 l 844 -164 l 844 869 l 269 869 b 258 858 263 869 258 865 l 258 679 l 343 679 b 351 672 349 679 351 676 l 351 661 b 343 653 351 656 349 653 l 258 653 l 258 471 l 343 471 b 351 464 349 471 351 468 l 351 451 b 343 444 351 447 349 444 l 258 444 l 258 261 l 343 261 b 350 254 347 261 350 258 l 350 243 b 343 235 350 238 347 235 l 258 235 l 258 53 l 343 53 b 350 46 347 53 350 50 l 350 33 b 343 26 350 29 347 26 m 871 869 l 871 -164 l 882 -164 b 994 -117 925 -164 963 -149 b 1040 -4 1025 -85 1040 -47 l 1040 710 b 994 822 1040 753 1025 790 b 882 869 963 854 925 869 "},"O":{"ha":1246,"x_min":0,"x_max":0,"o":"m 911 935 b 911 744 963 882 963 796 b 722 744 860 693 775 693 b 722 935 669 796 669 882 b 911 935 775 988 860 988 m 740 915 b 740 764 697 872 697 806 b 893 764 783 722 851 722 b 893 915 935 806 935 872 b 740 915 851 958 783 958 m 646 729 b 646 611 678 696 678 643 b 529 611 614 578 561 578 b 529 729 496 643 496 696 b 646 729 561 761 614 761 m 588 726 b 531 669 556 726 531 701 b 588 613 531 638 556 613 b 643 669 617 613 643 638 b 588 726 643 701 617 726 m 829 153 l 1078 -93 b 996 -278 1138 -143 1140 -281 l 268 -278 b 185 -93 124 -281 124 -143 l 433 153 l 433 503 b 333 586 433 569 404 586 b 326 593 329 586 326 589 l 326 606 b 333 613 326 610 329 613 b 460 503 418 613 460 585 l 460 143 l 204 -111 b 268 -251 164 -151 143 -251 l 996 -251 b 1058 -111 1114 -251 1104 -150 l 803 143 l 803 503 b 929 613 803 585 844 613 b 936 606 933 613 936 610 l 936 593 b 929 586 936 589 933 586 b 829 503 858 586 829 569 "},"P":{"ha":1344,"x_min":0,"x_max":0,"o":"m 1050 686 b 1206 308 1154 582 1206 456 b 1144 60 1206 221 1185 139 b 979 -128 1106 -14 1050 -76 b 969 -126 975 -131 972 -131 l 963 -117 b 964 -107 960 -112 960 -110 b 1106 43 1021 -67 1068 -17 l 1022 92 b 1019 101 1018 93 1017 97 l 1025 113 b 1035 114 1028 117 1031 117 l 1118 67 b 1121 72 1119 68 1121 71 b 1179 296 1158 142 1178 217 l 1083 296 b 1076 303 1079 296 1076 299 l 1076 314 b 1083 322 1076 319 1079 322 l 1179 322 b 1118 550 1178 403 1158 479 l 1035 503 b 1025 506 1031 500 1026 501 l 1019 515 b 1022 525 1018 519 1018 524 l 1106 574 b 938 742 1063 642 1006 699 l 889 657 b 879 656 888 654 883 654 l 869 661 b 867 671 865 663 864 667 l 914 754 b 686 815 843 794 767 814 l 686 719 b 678 713 686 715 683 713 l 667 713 b 660 719 663 713 660 715 l 660 815 b 431 754 578 814 501 794 l 478 671 b 476 661 481 667 481 664 l 465 656 b 456 657 461 653 458 653 l 407 742 b 240 574 338 699 282 642 l 324 525 b 326 515 328 522 328 519 l 319 506 b 310 503 318 501 314 501 l 226 550 b 165 322 189 482 168 406 l 261 322 b 269 314 267 322 269 319 l 269 303 b 261 296 269 299 267 296 l 165 296 b 224 72 168 214 188 139 b 226 67 225 72 225 67 l 310 114 b 319 113 314 115 318 115 l 326 101 b 324 92 329 97 328 94 l 240 43 b 381 -107 275 -14 321 -64 b 382 -117 385 -110 386 -112 l 375 -126 b 365 -128 372 -131 369 -131 b 200 60 294 -76 239 -14 b 139 308 160 139 139 221 b 296 686 139 456 192 582 b 672 842 400 790 525 842 b 1050 686 819 842 946 790 m 801 624 b 797 632 803 628 801 631 l 786 636 b 776 632 781 639 778 638 l 689 390 b 672 393 682 392 676 393 b 614 250 599 393 563 300 b 757 308 664 199 757 235 b 714 382 757 340 743 364 m 714 350 b 714 268 736 326 736 290 b 632 268 690 246 654 246 b 632 350 610 290 610 326 b 714 350 654 372 690 372 "},"Q":{"ha":1094,"x_min":0,"x_max":0,"o":"m 294 928 b 335 967 294 950 313 967 l 760 967 b 800 928 782 967 800 950 l 800 671 b 956 350 896 594 956 478 b 800 29 956 222 896 106 l 800 -228 b 760 -267 800 -250 782 -267 l 335 -267 b 294 -228 313 -267 294 -250 l 294 29 b 139 350 199 106 139 222 b 294 671 139 478 199 594 m 774 928 b 760 940 774 936 769 940 l 335 940 b 321 928 325 940 321 936 l 321 690 b 547 758 389 736 465 758 b 774 690 629 758 706 736 m 278 621 b 165 350 203 546 165 456 b 278 81 165 244 203 154 b 547 -32 351 6 442 -32 b 818 81 653 -32 743 6 b 929 350 892 154 929 244 b 818 621 929 456 892 546 b 547 732 743 694 653 732 b 278 621 442 732 351 694 m 549 326 l 540 333 l 401 458 b 401 468 399 463 399 467 l 410 478 b 419 478 413 482 415 482 l 549 361 l 751 529 b 761 528 756 532 758 532 l 769 518 b 768 508 772 514 772 511 m 321 -228 b 335 -240 321 -236 325 -240 l 760 -240 b 774 -228 769 -240 774 -236 l 774 10 b 547 -58 706 -36 629 -58 b 321 10 465 -58 389 -36 "},"R":{"ha":1368,"x_min":0,"x_max":0,"o":"m 683 893 b 1069 733 835 893 963 840 b 1229 347 1176 625 1229 496 b 1069 -39 1229 196 1176 68 b 683 -199 963 -146 835 -199 b 299 -39 533 -199 406 -146 b 139 347 192 68 139 196 b 299 733 139 499 192 626 b 683 893 406 840 533 893 m 514 838 b 743 499 600 740 676 628 b 1047 718 867 547 968 621 b 683 867 946 817 825 867 b 514 838 626 867 571 857 m 169 419 b 718 489 383 410 567 433 b 488 828 650 622 572 735 b 169 419 318 758 196 600 m 1065 699 b 754 474 985 600 881 525 b 817 332 775 432 796 385 b 1203 318 940 357 1068 353 l 1203 347 b 1065 699 1203 485 1157 601 m 325 -28 b 792 325 442 160 597 278 b 729 465 771 375 750 422 b 167 393 575 407 388 383 b 165 347 165 383 165 368 b 317 -21 165 204 215 82 b 325 -28 318 -22 321 -24 m 1200 292 b 826 307 1068 326 943 331 b 938 -106 878 171 915 33 b 1200 292 1083 -24 1182 124 m 913 -119 b 800 300 889 25 851 165 b 344 -46 610 254 457 139 b 683 -172 442 -131 554 -172 b 913 -119 764 -172 840 -154 "},"S":{"ha":1531,"x_min":0,"x_max":0,"o":"m 333 556 l 161 653 b 161 725 132 669 132 710 l 500 913 b 540 914 513 919 526 921 l 765 792 l 978 908 b 1018 908 990 915 1004 915 l 1369 717 b 1369 644 1399 701 1399 660 l 1206 554 l 1368 467 b 1368 393 1396 451 1396 410 l 1204 304 l 1204 18 b 1181 -18 1204 1 1196 -11 l 782 -218 b 744 -218 769 -225 757 -225 l 351 -24 b 329 14 336 -17 329 -4 l 329 299 l 163 390 b 164 463 135 406 135 447 m 361 571 l 738 776 l 528 890 b 514 890 522 893 518 893 l 174 701 b 174 675 163 696 163 682 m 793 776 l 1178 569 l 1357 667 b 1357 693 1367 672 1367 688 l 1004 885 b 990 885 1000 888 996 888 m 765 761 l 388 556 l 764 343 l 1150 554 m 361 540 l 176 439 b 176 413 165 433 165 418 l 525 221 b 540 221 531 218 536 218 l 736 328 m 790 328 l 982 219 b 997 219 986 217 992 217 l 1356 417 b 1356 443 1365 422 1365 438 l 1178 539 m 750 -192 l 750 306 l 553 199 b 513 199 539 192 525 192 l 356 285 l 356 14 b 364 0 356 7 358 3 m 776 306 l 776 -192 l 1169 6 b 1178 18 1175 8 1178 13 l 1178 289 l 1010 197 b 969 197 997 189 985 189 "},"T":{"ha":1299,"x_min":0,"x_max":0,"o":"m 813 693 b 1108 796 821 831 1010 904 b 1006 500 1217 697 1143 508 l 1146 361 b 1146 311 1158 346 1158 326 l 672 -162 b 622 -162 657 -175 638 -175 l 150 310 b 150 360 135 322 135 347 l 307 517 b 344 503 322 529 343 521 b 583 408 349 386 494 319 b 586 604 639 474 638 547 b 490 647 560 632 528 646 b 475 685 469 649 463 672 l 624 833 b 672 833 636 849 660 849 m 654 814 b 642 814 650 818 646 818 l 501 674 b 603 389 635 663 706 492 b 375 382 529 326 442 325 b 318 490 340 411 322 447 l 168 340 b 168 329 164 336 164 333 l 640 -144 b 653 -144 644 -149 649 -149 l 1126 329 b 1126 342 1131 333 1131 338 l 981 489 b 994 525 965 501 976 525 b 1093 574 1033 526 1067 543 b 1133 672 1119 603 1133 636 b 1089 776 1132 708 1118 743 b 886 781 1022 833 946 835 b 838 682 856 754 839 721 b 801 668 838 664 814 656 "},"U":{"ha":1400,"x_min":0,"x_max":0,"o":"m 1025 106 b 1015 108 1021 103 1018 104 l 1010 119 b 1013 129 1007 124 1008 128 l 1132 197 b 1188 183 1153 208 1175 201 b 1264 64 1221 129 1246 90 b 1261 53 1267 58 1265 54 l 1251 47 b 1242 49 1247 43 1244 44 l 1168 164 b 704 -222 1114 -90 911 -228 b 239 164 499 -228 294 -90 l 167 49 b 157 47 164 44 161 43 l 146 53 b 144 64 142 54 142 58 l 221 183 b 276 197 233 201 256 208 l 396 129 b 399 119 400 126 401 124 l 393 108 b 383 106 390 104 388 103 l 264 174 b 419 -97 288 58 339 -32 b 690 -197 499 -161 589 -194 l 690 458 l 499 458 b 492 465 494 458 492 461 l 492 478 b 499 485 492 482 494 485 l 690 485 l 690 606 b 554 754 614 613 554 676 b 704 904 554 838 621 904 b 854 754 788 904 854 838 b 717 606 854 676 794 613 l 717 485 l 910 485 b 917 478 914 485 917 482 l 917 465 b 910 458 917 461 914 458 l 717 458 l 717 -197 b 990 -97 818 -194 910 -161 b 1143 174 1069 -32 1121 58 m 617 842 b 617 667 568 793 568 715 b 792 667 665 618 743 618 b 792 842 840 715 840 793 b 617 842 743 890 665 890 "},"V":{"ha":1213,"x_min":0,"x_max":0,"o":"m 161 -87 b 146 -57 146 -87 139 -69 b 285 403 239 75 285 228 b 361 639 285 500 310 579 b 549 749 411 699 474 735 b 506 833 519 769 506 799 b 610 938 506 890 553 938 b 715 833 667 938 715 890 b 672 749 715 799 701 769 b 861 639 747 735 810 699 b 936 403 911 579 936 500 b 1074 -57 936 229 982 75 b 1058 -87 1083 -69 1074 -87 l 786 -87 b 433 -87 771 -301 449 -301 m 610 911 b 532 833 567 911 532 876 b 610 754 532 790 567 754 b 689 833 654 754 689 790 b 610 911 689 876 654 911 m 1044 -61 b 910 403 954 75 910 229 b 311 403 910 836 311 836 b 176 -61 311 229 267 75 m 461 -87 b 611 -224 467 -172 539 -224 b 760 -87 682 -224 754 -172 "},"W":{"ha":1479,"x_min":0,"x_max":0,"o":"m 1113 299 l 1342 35 b 1310 -33 1364 8 1344 -35 l 1136 -29 l 1082 -214 b 1008 -222 1072 -247 1025 -251 l 826 94 l 776 47 b 718 47 760 32 733 32 l 672 92 l 493 -222 b 418 -214 475 -251 428 -247 l 364 -29 l 192 -33 b 160 35 157 -35 136 8 l 389 300 l 333 331 b 317 383 315 340 307 365 l 369 488 b 369 500 371 492 371 496 l 318 606 b 336 658 308 626 315 649 l 440 713 b 447 722 444 717 446 719 l 468 838 b 513 871 469 858 492 875 l 629 853 b 640 857 633 851 638 853 l 725 938 b 781 938 740 953 765 953 l 864 856 b 875 851 867 851 871 850 l 992 867 b 1036 833 1013 871 1035 856 l 1056 718 b 1063 708 1057 714 1060 710 l 1165 653 b 1183 600 1186 643 1193 621 l 1131 496 b 1131 483 1128 492 1128 488 l 1182 378 b 1164 325 1192 360 1182 335 m 1011 829 b 994 840 1010 839 1004 842 l 879 825 b 846 836 867 824 856 826 l 763 918 b 743 918 756 925 750 925 l 658 838 b 625 826 649 828 638 825 l 510 844 b 493 833 500 846 494 843 l 472 718 b 451 689 471 706 464 696 l 347 635 b 342 617 340 631 338 625 l 393 511 b 393 476 399 500 399 489 l 340 372 b 346 353 336 364 339 357 l 449 299 b 469 269 461 292 468 282 l 489 154 b 504 143 490 144 496 142 l 621 158 b 654 147 633 160 644 156 l 736 67 b 757 65 743 58 750 58 l 842 146 b 875 157 851 156 863 158 l 990 139 b 1006 150 999 139 1004 143 l 1026 265 b 1047 294 1029 279 1036 289 l 1151 349 b 1158 367 1160 353 1163 358 l 1107 472 b 1107 507 1101 483 1101 494 l 1160 611 b 1154 631 1163 618 1161 625 l 1050 685 b 1029 714 1039 692 1032 701 m 653 111 b 631 132 639 125 632 132 l 624 132 l 508 117 b 463 150 482 114 467 125 l 444 265 b 438 275 443 268 442 271 l 413 288 l 179 18 b 190 -7 172 8 178 -7 l 383 -3 l 443 -207 b 469 -210 447 -218 464 -219 m 1031 -210 b 1057 -207 1036 -219 1056 -218 l 1117 -3 l 1310 -7 b 1321 18 1322 -7 1328 8 l 1089 286 b 1056 267 1085 282 1058 271 b 1053 261 1054 265 1053 263 l 1032 146 b 986 114 1028 124 1008 110 l 871 131 b 846 114 867 132 858 126 "},"X":{"ha":1385,"x_min":0,"x_max":0,"o":"m 144 899 b 147 908 142 903 143 907 l 157 914 b 167 911 161 915 165 915 l 410 492 b 626 597 471 549 543 585 l 808 911 b 818 914 811 915 814 917 l 829 908 b 831 899 833 906 833 903 l 660 600 b 686 601 665 601 674 601 b 976 478 800 601 897 560 l 1226 911 b 1236 914 1228 915 1232 917 l 1246 908 b 1249 899 1250 907 1251 903 l 996 457 b 1092 196 1060 383 1092 296 b 974 -92 1092 83 1053 -12 b 686 -210 894 -171 799 -210 b 400 -92 574 -210 479 -171 b 281 196 321 -12 281 83 b 390 474 281 303 317 394 l 144 899 m 650 715 l 544 899 b 547 908 542 903 543 907 l 557 914 b 567 911 563 917 565 915 l 667 740 m 418 464 b 307 196 344 390 307 300 b 418 -72 307 92 344 1 b 686 -183 492 -146 582 -183 b 954 -72 790 -183 881 -146 b 1064 196 1028 1 1064 92 b 954 464 1064 300 1028 390 b 686 575 881 538 790 575 b 418 464 582 575 492 538 m 721 383 b 728 376 725 383 728 381 l 728 -26 b 721 -33 728 -31 725 -33 l 708 -33 b 701 -26 704 -33 701 -31 l 701 351 l 556 271 b 546 274 551 267 549 268 l 539 283 b 542 293 536 288 538 290 l 700 381 b 711 383 703 382 707 383 "},"Y":{"ha":1282,"x_min":0,"x_max":0,"o":"m 985 696 b 1021 479 964 600 981 546 b 1082 389 1040 444 1061 415 b 1172 183 1125 338 1167 257 b 863 -251 1186 -32 1047 -190 b 315 -142 681 -315 458 -287 b 182 113 247 -71 203 14 b 207 399 161 211 169 307 b 249 396 214 417 243 417 b 308 292 261 360 281 325 b 386 226 335 261 360 239 b 861 985 215 596 461 965 b 881 949 879 985 892 964 b 807 486 800 832 740 622 b 810 482 808 485 808 483 l 811 488 b 953 724 804 588 860 674 b 985 696 971 733 990 717 m 957 696 b 838 489 879 650 832 576 b 785 472 839 449 803 438 b 856 957 711 615 772 831 b 415 228 472 938 244 578 b 385 197 425 210 406 190 b 289 275 351 213 319 239 b 226 379 260 307 239 342 b 208 113 193 293 188 204 b 335 -124 229 21 271 -58 b 851 -228 468 -260 679 -287 b 1146 182 1025 -171 1160 -19 b 1057 382 1140 254 1100 331 b 994 471 1036 407 1015 436 b 957 696 954 538 936 594 "},"Z":{"ha":1426,"x_min":0,"x_max":0,"o":"m 713 922 b 1119 754 872 922 1007 867 b 1288 349 1232 642 1288 507 b 1119 -58 1288 189 1232 54 b 713 -226 1007 -171 872 -226 b 307 -58 554 -226 419 -171 b 139 349 194 54 139 189 b 307 754 139 507 194 642 b 713 922 419 867 554 922 m 607 583 b 819 583 678 615 749 615 l 819 886 b 607 886 749 900 678 900 m 579 881 b 326 736 482 856 397 807 b 182 482 254 664 206 579 l 492 482 b 579 569 515 517 544 546 m 846 569 b 933 482 883 546 913 517 l 1244 482 b 1101 736 1221 579 1172 664 b 846 881 1029 807 944 856 m 550 513 b 482 349 504 467 482 413 b 550 185 482 285 504 231 b 713 117 594 139 649 117 b 876 185 776 117 831 139 b 944 349 922 231 944 285 b 876 513 944 413 922 467 b 713 579 831 557 776 579 b 550 513 649 579 594 557 m 478 242 b 478 456 446 313 446 383 l 175 456 b 175 242 161 383 161 313 m 1250 242 b 1250 456 1264 313 1264 383 l 947 456 b 947 242 979 383 979 313 m 579 128 b 492 215 544 149 515 178 l 182 215 b 326 -40 206 117 254 32 b 579 -183 397 -111 482 -160 m 933 215 b 846 128 913 178 883 149 l 846 -183 b 1101 -40 944 -160 1029 -111 b 1244 215 1172 32 1221 117 m 819 114 b 607 114 749 82 678 82 l 607 -189 b 819 -189 678 -203 749 -203 "},"a":{"ha":1225,"x_min":0,"x_max":0,"o":"m 219 232 b 139 501 165 311 139 400 b 278 836 139 632 185 743 b 613 975 371 929 482 975 b 947 836 743 975 854 929 b 1086 501 1040 743 1086 632 b 1001 232 1086 403 1058 314 l 644 -290 b 576 -290 628 -314 593 -314 m 599 -275 b 622 -275 604 -282 617 -282 l 979 246 b 1060 501 1033 325 1060 410 b 929 818 1060 625 1017 731 b 613 949 842 906 736 949 b 297 818 489 949 385 906 b 165 501 210 731 165 625 b 242 246 165 407 190 322 m 768 657 b 832 501 811 614 832 561 b 768 347 832 442 811 390 b 613 282 725 304 672 282 b 458 347 553 282 501 304 b 393 501 415 390 393 442 b 458 657 393 561 415 614 b 613 721 501 700 553 721 b 768 657 672 721 725 700 m 613 694 b 476 639 558 694 514 676 b 419 501 439 601 419 556 b 476 365 419 447 439 403 b 613 308 514 328 558 308 b 749 365 665 308 711 328 b 806 501 786 403 806 447 b 749 639 806 556 786 601 b 613 694 711 676 665 694 "},"b":{"ha":1735,"x_min":0,"x_max":0,"o":"m 1108 121 l 1108 86 b 1051 -51 1108 32 1089 -14 b 915 -108 1014 -89 968 -108 l 569 -108 l 363 -299 b 296 -271 336 -322 296 -304 l 296 -104 b 139 86 206 -86 139 -7 l 139 440 b 196 578 139 494 158 540 b 333 635 233 615 279 635 l 531 635 l 531 726 b 593 876 531 785 551 835 b 743 939 635 918 685 939 l 1383 939 b 1535 876 1443 939 1493 918 b 1596 726 1575 835 1596 785 l 1596 335 b 1422 126 1596 233 1522 144 l 1422 -71 b 1350 -100 1422 -108 1379 -126 m 743 913 b 613 858 692 913 649 894 b 557 726 575 821 557 778 l 557 335 b 613 204 557 283 575 240 b 743 149 649 167 692 149 l 1117 149 l 1369 -82 b 1396 -71 1382 -92 1396 -83 l 1396 149 l 1407 150 b 1569 335 1500 163 1569 242 l 1569 726 b 1515 858 1569 778 1551 821 b 1383 913 1478 894 1435 913 m 531 608 l 333 608 b 215 560 288 608 247 592 b 167 440 183 526 167 486 l 167 86 b 322 -83 167 -4 232 -72 l 322 -271 b 344 -279 322 -282 338 -286 l 560 -82 l 915 -82 b 1033 -33 961 -82 1001 -65 b 1082 86 1065 0 1082 40 l 1082 122 l 743 122 b 593 185 685 122 635 143 b 531 335 551 226 531 276 "},"c":{"ha":1243,"x_min":0,"x_max":0,"o":"m 1092 654 b 1104 625 1100 646 1104 636 l 1104 -33 b 1043 -183 1104 -92 1083 -142 b 893 -246 1001 -225 951 -246 l 351 -246 b 201 -183 293 -246 243 -225 b 139 -33 160 -142 139 -92 l 139 728 b 201 878 139 786 160 836 b 351 939 243 918 293 939 l 790 939 b 819 928 800 939 810 935 m 1078 618 l 825 618 b 782 660 801 618 782 636 l 782 913 l 351 913 b 221 858 300 913 257 894 b 167 728 185 822 167 779 l 167 -33 b 221 -165 167 -85 185 -128 b 351 -219 257 -201 300 -219 l 893 -219 b 1024 -165 944 -219 988 -201 b 1078 -33 1060 -128 1078 -85 m 808 900 l 808 660 b 825 644 808 650 814 644 l 1065 644 m 863 415 b 871 424 868 415 871 418 l 871 436 b 863 443 871 440 868 443 l 381 443 b 374 436 376 443 374 440 l 374 424 b 381 415 374 418 376 415 m 863 199 b 871 207 868 199 871 201 l 871 219 b 863 228 871 225 868 228 l 381 228 b 374 219 376 228 374 225 l 374 207 b 381 199 374 201 376 199 m 863 -17 b 871 -10 868 -17 871 -14 l 871 3 b 863 11 871 8 868 11 l 381 11 b 374 3 376 11 374 8 l 374 -10 b 381 -17 374 -14 376 -17 "},"d":{"ha":1243,"x_min":0,"x_max":0,"o":"m 1092 654 b 1104 625 1100 646 1104 636 l 1104 -33 b 1042 -183 1104 -92 1083 -142 b 892 -246 1000 -225 950 -246 l 351 -246 b 201 -183 293 -246 243 -225 b 139 -33 160 -142 139 -92 l 139 728 b 201 878 139 786 160 836 b 351 939 243 918 293 939 l 789 939 b 818 928 801 939 811 935 m 1078 617 l 822 617 b 781 658 800 617 781 635 l 781 913 l 351 913 b 221 858 300 913 257 894 b 165 728 183 822 165 779 l 165 -33 b 221 -165 165 -85 183 -129 b 351 -219 257 -201 300 -219 l 892 -219 b 1024 -165 943 -219 988 -201 b 1078 -33 1060 -129 1078 -85 m 807 901 l 807 658 b 822 643 807 649 813 643 l 1065 643 "},"e":{"ha":1457,"x_min":0,"x_max":0,"o":"m 838 889 b 982 822 919 882 954 874 b 1004 776 992 803 1000 788 b 1025 715 1008 765 1015 744 l 1122 715 b 1261 658 1176 715 1222 696 b 1318 519 1299 619 1318 574 l 1318 18 b 1261 -121 1318 -36 1299 -82 b 1122 -178 1222 -158 1176 -178 l 333 -178 b 196 -121 279 -178 233 -158 b 139 18 158 -82 139 -36 l 139 519 b 196 658 139 574 158 619 b 333 715 233 696 279 715 l 432 715 b 489 843 454 786 461 807 b 619 889 517 879 554 889 m 619 863 b 501 817 558 863 522 847 b 479 775 490 800 488 797 b 469 750 475 763 471 754 b 450 689 465 739 454 701 l 333 689 b 215 639 288 689 247 672 b 165 519 182 606 165 565 l 165 18 b 215 -101 165 -28 182 -68 b 333 -151 247 -135 288 -151 l 1122 -151 b 1242 -101 1168 -151 1208 -135 b 1292 18 1275 -68 1292 -28 l 1292 519 b 1242 639 1292 565 1275 606 b 1122 689 1208 672 1168 689 l 1006 689 b 986 754 1001 701 990 742 b 976 781 983 760 981 768 b 950 824 968 803 961 807 b 838 863 931 850 893 863 m 728 576 b 521 490 647 576 578 547 b 435 283 464 433 435 364 b 521 76 435 201 464 133 b 728 -10 578 19 647 -10 b 936 76 810 -10 879 19 b 1021 283 993 133 1021 201 b 936 490 1021 364 993 433 b 728 576 879 547 810 576 m 728 550 b 917 472 801 550 865 524 b 994 283 968 421 994 357 b 917 94 994 210 968 146 b 728 17 865 43 801 17 b 540 94 654 17 592 43 b 463 283 489 146 463 210 b 540 472 463 357 489 421 b 728 550 592 524 654 550 "},"f":{"ha":1443,"x_min":0,"x_max":0,"o":"m 1072 893 b 1236 825 1136 893 1190 871 b 1304 661 1282 779 1304 725 l 1304 233 b 1236 69 1304 169 1282 115 b 1072 1 1190 24 1136 1 l 669 1 l 406 -244 b 331 -211 376 -271 331 -250 l 331 6 b 194 85 276 15 231 42 b 139 233 157 128 139 176 l 139 661 b 207 825 139 725 161 779 b 371 893 253 871 307 893 m 371 867 b 226 807 314 867 267 847 b 165 661 186 767 165 718 l 165 233 b 217 97 165 182 182 136 b 344 29 251 58 293 36 l 357 28 l 357 -211 b 388 -225 357 -228 376 -236 l 658 28 l 1072 28 b 1218 89 1129 28 1178 49 b 1278 233 1258 129 1278 176 l 1278 661 b 1218 807 1278 718 1258 767 b 1072 867 1178 847 1129 867 "},"g":{"ha":1410,"x_min":0,"x_max":0,"o":"m 1044 861 b 1206 794 1107 861 1161 839 b 1271 635 1249 750 1271 697 l 1271 219 b 1206 60 1271 157 1249 103 b 1044 -7 1161 15 1107 -7 l 653 -7 l 397 -244 b 324 -212 369 -271 324 -251 l 324 -3 b 139 219 218 18 139 110 l 139 635 b 206 794 139 697 161 750 b 364 861 249 839 301 861 m 364 833 b 224 775 310 833 263 814 b 165 635 185 736 165 689 l 165 219 b 339 22 165 119 240 35 l 350 19 l 350 -212 b 379 -225 350 -228 368 -236 l 643 19 l 1044 19 b 1186 79 1099 19 1146 39 b 1244 219 1225 118 1244 165 l 1244 635 b 1186 775 1244 689 1225 736 b 1044 833 1146 814 1099 833 m 410 593 b 401 601 404 593 401 596 l 401 614 b 410 622 401 619 404 622 l 1000 622 b 1007 614 1004 622 1007 619 l 1007 601 b 1000 593 1007 596 1004 593 m 410 390 b 401 397 404 390 401 393 l 401 411 b 410 418 401 415 404 418 l 1000 418 b 1007 411 1004 418 1007 415 l 1007 397 b 1000 390 1007 393 1004 390 m 410 186 b 401 194 404 186 401 189 l 401 207 b 410 215 401 213 404 215 l 775 215 b 783 207 781 215 783 213 l 783 194 b 775 186 783 189 781 186 "},"h":{"ha":1294,"x_min":0,"x_max":0,"o":"m 329 178 b 517 -10 221 63 403 -124 l 1072 546 b 797 821 1250 724 975 999 l 239 263 b 601 -101 14 36 375 -328 l 1054 351 b 1065 351 1058 356 1061 356 l 1074 343 b 1074 332 1078 339 1078 336 l 621 -121 b 219 281 371 -371 -31 31 l 779 840 b 818 872 792 853 804 863 b 1026 879 885 915 954 918 b 1146 740 1086 849 1125 803 b 1092 528 1172 661 1154 590 l 535 -28 b 311 196 399 -164 175 60 l 763 647 b 774 647 767 651 769 651 l 781 639 b 781 628 785 635 785 632 "},"i":{"ha":1428,"x_min":0,"x_max":0,"o":"m 603 483 b 742 867 564 639 621 788 b 1119 876 851 940 1006 943 b 1119 838 1135 867 1135 847 l 886 696 b 938 565 893 656 910 613 b 1024 453 964 518 993 481 l 1253 582 b 1289 563 1269 592 1289 581 b 1164 289 1290 444 1249 353 b 853 226 1079 224 975 203 l 433 -193 b 176 57 292 -336 43 -75 m 194 39 b 414 -175 86 -69 299 -293 l 844 256 b 1146 308 965 231 1067 249 b 1263 557 1222 364 1261 447 l 1035 428 b 1008 431 1025 422 1015 424 b 914 551 975 460 943 500 b 860 693 885 603 867 650 b 871 717 858 704 861 713 l 1101 857 b 756 844 989 918 856 911 b 632 476 633 763 592 621 m 342 -33 b 349 -50 346 -37 349 -43 b 324 -74 349 -65 340 -74 b 307 -33 303 -74 292 -49 b 342 -33 317 -24 331 -24 "},"j":{"ha":1426,"x_min":0,"x_max":0,"o":"m 897 160 b 588 38 811 78 708 38 b 271 169 464 38 358 82 b 139 488 183 257 139 364 b 271 806 139 611 183 718 b 588 938 358 893 464 938 b 906 806 711 938 818 893 b 1038 488 993 718 1038 611 b 915 179 1038 368 997 265 l 1285 -190 b 1285 -201 1289 -194 1289 -197 l 1276 -210 b 1265 -210 1272 -214 1269 -214 m 588 911 b 289 788 471 911 371 869 b 165 488 207 704 165 604 b 289 188 165 369 207 269 b 588 64 371 106 471 64 b 888 188 706 64 806 106 b 1011 488 969 269 1011 369 b 888 788 1011 604 969 704 b 588 911 806 869 706 911 "},"k":{"ha":1426,"x_min":0,"x_max":0,"o":"m 897 160 b 589 38 811 78 708 38 b 271 169 465 38 358 82 b 139 488 183 257 139 364 b 271 806 139 611 183 718 b 589 938 358 893 465 938 b 907 806 713 938 819 893 b 1039 488 994 718 1039 611 b 915 179 1039 369 997 267 l 1285 -190 b 1285 -201 1289 -194 1289 -197 l 1278 -210 b 1267 -210 1274 -214 1271 -214 m 589 911 b 289 788 471 911 371 869 b 165 488 207 704 165 604 b 289 188 165 369 207 269 b 589 64 371 106 471 64 b 888 188 706 64 806 106 b 1011 488 969 269 1011 369 b 888 788 1011 604 969 704 b 589 911 806 869 706 911 m 603 474 l 789 474 b 797 481 794 474 797 476 l 797 493 b 789 500 797 497 794 500 l 603 500 l 603 688 b 594 694 603 692 600 694 l 583 694 b 575 688 578 694 575 692 l 575 500 l 389 500 b 381 493 383 500 381 497 l 381 481 b 389 474 381 476 383 474 l 575 474 l 575 286 b 583 279 575 282 578 279 l 594 279 b 603 286 600 279 603 282 "},"l":{"ha":1426,"x_min":0,"x_max":0,"o":"m 897 160 b 589 38 811 78 708 38 b 271 169 465 38 358 82 b 139 488 183 257 139 364 b 271 806 139 611 183 718 b 589 938 358 893 465 938 b 907 806 713 938 819 893 b 1039 488 994 718 1039 611 b 915 179 1039 369 997 267 l 1285 -190 b 1285 -201 1289 -194 1289 -197 l 1278 -210 b 1267 -210 1274 -214 1271 -214 m 589 911 b 289 788 471 911 371 869 b 165 488 207 704 165 604 b 289 188 165 369 207 269 b 589 64 371 106 471 64 b 888 188 706 64 806 106 b 1011 488 969 269 1011 369 b 888 788 1011 604 969 704 b 589 911 806 869 706 911 m 389 474 b 381 481 383 474 381 476 l 381 493 b 389 501 381 499 383 501 l 788 501 b 796 493 793 501 796 499 l 796 481 b 788 474 796 476 793 474 "},"m":{"ha":1463,"x_min":0,"x_max":0,"o":"m 535 383 l 664 525 b 760 675 706 571 738 621 b 824 876 782 728 803 794 b 950 915 842 944 904 961 b 996 792 976 889 992 849 b 986 629 1000 735 996 681 b 947 496 976 578 963 533 l 1207 496 b 1268 296 1310 501 1342 343 b 1324 194 1307 278 1325 244 b 1257 96 1321 143 1299 111 b 1283 -4 1283 69 1292 36 b 1214 -75 1274 -44 1251 -68 b 1149 -242 1269 -129 1229 -242 l 853 -242 b 689 -207 813 -242 758 -231 b 535 -168 618 -183 567 -169 l 535 -194 b 494 -235 535 -217 517 -235 l 181 -235 b 139 -194 158 -235 139 -217 l 139 421 b 181 461 139 443 158 461 l 494 461 b 535 421 517 461 535 443 m 535 -142 b 690 -179 569 -143 621 -156 b 853 -214 760 -203 814 -214 l 1149 -214 b 1211 -165 1179 -214 1200 -197 b 1190 -89 1221 -132 1214 -107 b 1200 -50 1175 -78 1183 -51 b 1233 82 1264 -47 1278 43 b 1244 119 1221 94 1228 115 b 1253 274 1314 135 1311 261 b 1247 314 1236 279 1232 304 b 1207 469 1306 344 1288 475 l 943 469 b 921 501 926 469 914 485 b 971 776 949 567 975 669 b 933 893 968 831 956 869 b 850 871 904 928 863 921 b 783 661 828 785 806 715 b 683 508 760 607 726 556 l 535 344 m 181 435 b 165 421 171 435 165 431 l 165 -194 b 181 -208 165 -204 171 -208 l 494 -208 b 508 -194 504 -208 508 -204 l 508 421 b 494 435 508 431 504 435 "},"n":{"ha":1578,"x_min":0,"x_max":0,"o":"m 633 176 b 503 381 557 228 513 296 l 475 632 b 818 949 451 836 633 954 b 1163 632 1003 954 1185 836 l 1133 381 b 1003 176 1124 294 1081 226 l 1354 8 b 1458 -94 1404 -15 1439 -50 b 1450 -215 1476 -139 1474 -179 b 1317 -269 1425 -251 1381 -269 l 319 -269 b 188 -215 256 -269 211 -251 b 179 -94 163 -179 160 -139 b 283 8 199 -50 233 -15 m 294 -15 b 319 -243 168 -76 147 -243 l 1317 -243 b 1342 -15 1493 -243 1467 -76 l 990 154 b 992 200 964 167 969 185 b 1107 383 1060 249 1099 310 l 1136 635 b 1054 847 1146 725 1119 796 b 818 922 989 897 911 922 b 583 847 725 922 647 897 b 501 635 518 796 492 725 l 529 383 b 650 197 540 299 576 249 b 647 154 674 181 672 167 "},"o":{"ha":1636,"x_min":0,"x_max":0,"o":"m 1051 99 l 954 156 b 956 200 932 169 932 185 b 1078 385 1035 257 1067 297 l 1106 636 b 1025 849 1115 726 1089 797 b 789 924 960 899 882 924 b 553 849 696 924 618 899 b 471 636 488 797 461 726 l 500 385 b 618 204 510 301 544 254 b 619 156 644 183 646 168 l 267 -14 b 293 -243 142 -75 118 -243 l 1038 -243 b 1044 -250 1042 -243 1044 -246 l 1044 -261 b 1038 -269 1044 -267 1042 -269 l 293 -269 b 256 10 92 -269 103 -64 l 608 179 b 474 382 524 239 485 286 l 444 633 b 789 950 422 838 604 956 b 1132 633 974 956 1156 838 l 1104 382 b 1067 268 1099 333 1086 294 b 968 179 1046 242 1014 211 l 1064 122 b 1067 113 1068 119 1069 117 l 1061 101 b 1051 99 1058 97 1056 96 m 1318 -115 l 1478 -275 b 1488 -275 1481 -279 1483 -279 l 1496 -267 b 1496 -256 1500 -262 1500 -260 l 1336 -97 l 1496 63 b 1496 72 1500 65 1500 68 l 1488 81 b 1478 81 1483 85 1481 85 l 1318 -78 l 1158 81 b 1149 81 1156 85 1153 85 l 1140 72 b 1140 63 1136 69 1136 67 l 1300 -97 l 1140 -256 b 1140 -267 1136 -260 1136 -262 l 1149 -275 b 1158 -275 1153 -279 1156 -279 "},"p":{"ha":1593,"x_min":0,"x_max":0,"o":"m 1126 69 b 981 156 1100 83 1051 113 b 981 200 957 168 957 183 b 1103 385 1060 257 1092 297 l 1132 636 b 814 924 1151 824 982 929 b 579 849 721 924 643 899 b 497 636 514 797 488 726 l 525 385 b 644 204 535 301 571 254 b 646 156 671 185 671 168 l 293 -14 b 318 -243 168 -75 142 -243 l 1046 -243 b 1054 -250 1051 -243 1054 -246 l 1054 -261 b 1046 -269 1054 -267 1051 -269 l 318 -269 b 186 -215 256 -269 211 -251 b 178 -94 161 -179 158 -139 b 281 10 196 -49 231 -14 l 633 179 b 499 382 549 239 510 286 l 471 633 b 814 950 446 838 629 956 b 1158 633 999 956 1181 838 l 1129 382 b 1092 268 1124 333 1111 294 b 993 179 1071 242 1039 211 l 1140 92 b 1142 82 1144 89 1144 86 l 1136 72 b 1126 69 1133 68 1131 67 m 1235 -249 l 1110 -64 b 1100 -62 1107 -60 1104 -60 l 1090 -69 b 1089 -79 1086 -72 1086 -75 l 1213 -262 b 1279 -261 1229 -289 1267 -287 l 1481 121 b 1478 131 1482 125 1482 128 l 1467 136 b 1457 133 1463 139 1460 138 l 1256 -249 b 1235 -249 1251 -256 1240 -256 "},"q":{"ha":1654,"x_min":0,"x_max":0,"o":"m 1138 63 b 1050 115 1125 69 1096 88 b 979 156 1004 142 981 156 b 981 199 958 169 958 183 b 1103 385 1060 256 1092 296 l 1131 636 b 1050 849 1140 726 1114 797 b 814 924 985 899 907 924 b 496 636 646 929 476 824 l 525 385 b 644 203 535 301 571 253 b 644 154 672 183 672 167 l 292 -15 b 318 -243 167 -76 143 -243 l 1094 -243 b 1101 -250 1099 -243 1101 -246 l 1101 -262 b 1094 -269 1101 -267 1099 -269 l 318 -269 b 186 -215 254 -269 210 -251 b 178 -94 161 -179 158 -139 b 281 8 196 -50 231 -15 l 633 178 b 499 382 549 238 510 288 l 471 633 b 814 950 446 838 629 956 b 1157 633 999 956 1182 838 l 1129 382 b 1092 268 1124 333 1111 294 b 993 178 1071 242 1039 211 l 1150 85 b 1153 75 1154 82 1156 79 l 1147 65 b 1138 63 1146 61 1142 60 m 1319 -107 l 1319 -297 b 1326 -304 1319 -301 1322 -304 l 1339 -304 b 1346 -297 1343 -304 1346 -301 l 1346 -107 l 1536 -107 b 1543 -100 1540 -107 1543 -104 l 1543 -89 b 1536 -81 1543 -83 1540 -81 l 1346 -81 l 1346 108 b 1339 115 1346 113 1343 115 l 1326 115 b 1319 108 1322 115 1319 113 l 1319 -81 l 1129 -81 b 1122 -89 1125 -81 1122 -83 l 1122 -100 b 1129 -107 1122 -104 1125 -107 "},"r":{"ha":1622,"x_min":0,"x_max":0,"o":"m 293 -271 b 138 -156 193 -271 138 -217 b 256 14 138 -93 182 -21 l 572 149 b 289 242 468 158 374 190 b 278 304 265 254 261 282 b 381 479 315 353 350 411 b 457 661 411 547 436 607 b 528 817 476 715 500 767 b 811 974 582 915 672 974 b 1063 863 928 974 1014 928 b 1132 743 1086 831 1110 790 b 1254 450 1176 647 1199 560 b 1343 304 1281 394 1311 346 b 1332 242 1360 282 1356 254 b 1049 149 1247 190 1153 158 l 1365 14 b 1472 -92 1417 -10 1453 -46 b 1464 -215 1492 -137 1489 -178 b 1329 -271 1438 -253 1393 -271 m 1329 -243 b 1354 -10 1513 -243 1476 -64 l 1031 128 b 1039 174 1007 135 1011 172 b 1318 264 1143 182 1236 213 b 1322 288 1328 269 1329 278 b 1219 463 1285 336 1250 394 b 1144 642 1189 529 1164 589 b 1076 794 1125 694 1103 746 b 811 947 1025 892 940 947 b 510 722 639 944 569 857 b 389 433 465 628 444 543 b 299 288 361 378 331 329 b 303 264 292 278 293 269 b 582 174 386 213 479 182 b 590 128 610 172 614 135 l 267 -10 b 293 -243 140 -64 110 -243 "},"s":{"ha":2210,"x_min":0,"x_max":0,"o":"m 639 182 b 507 389 561 233 517 303 l 478 644 b 568 881 467 744 497 824 b 826 965 639 938 725 965 b 1174 644 1014 971 1196 851 l 1144 389 b 1013 183 1135 301 1092 233 l 1368 13 b 1474 -92 1419 -11 1454 -46 b 1465 -215 1493 -137 1490 -178 b 1331 -269 1439 -251 1394 -269 l 321 -269 b 188 -215 257 -269 213 -251 b 179 -92 163 -178 160 -137 b 285 13 199 -46 233 -11 m 296 -11 b 321 -243 167 -67 147 -249 l 1331 -243 b 1447 -97 1442 -243 1483 -171 b 1357 -11 1429 -60 1399 -32 l 994 163 b 993 201 976 172 976 190 b 1118 393 1069 250 1107 303 l 1147 647 b 1065 861 1157 739 1131 810 b 826 938 1000 913 919 938 b 588 861 732 938 653 913 b 504 647 522 810 494 739 l 533 393 b 661 200 544 300 578 257 b 660 163 678 189 678 172 m 1551 -44 b 1543 -37 1546 -44 1543 -42 l 1543 -25 b 1551 -18 1543 -21 1546 -18 l 1990 -18 b 2007 133 2107 -18 2090 92 l 1764 250 b 1761 290 1742 260 1743 278 b 1840 415 1807 317 1833 358 l 1860 592 b 1804 736 1867 654 1849 701 b 1643 788 1760 771 1706 788 b 1481 736 1579 788 1525 771 b 1425 592 1436 701 1418 654 l 1446 415 b 1533 283 1453 350 1474 324 b 1529 253 1546 274 1544 263 l 1306 143 b 1296 147 1300 140 1297 142 l 1290 157 b 1293 167 1288 161 1289 165 l 1506 271 b 1419 413 1454 308 1426 356 l 1399 588 b 1461 754 1392 658 1413 714 b 1643 814 1510 794 1571 814 b 1824 754 1714 814 1775 794 b 1886 588 1872 714 1893 658 l 1867 413 b 1779 271 1860 354 1831 307 l 2018 157 b 1990 -44 2132 108 2133 -50 l 1551 -44 "},"t":{"ha":2921,"x_min":0,"x_max":0,"o":"m 1321 182 b 1189 389 1243 233 1199 303 l 1160 644 b 1250 881 1149 744 1179 824 b 1508 965 1321 938 1407 965 b 1856 644 1696 971 1878 851 l 1826 389 b 1694 183 1817 301 1774 233 l 2050 13 b 2156 -92 2101 -11 2136 -46 b 2147 -215 2175 -137 2172 -178 b 2013 -269 2121 -251 2076 -269 l 1003 -269 b 869 -215 939 -269 894 -251 b 861 -92 844 -178 842 -137 b 967 13 881 -46 915 -11 m 978 -11 b 1003 -243 849 -67 829 -249 l 2013 -243 b 2129 -97 2124 -243 2165 -171 b 2039 -11 2111 -60 2081 -32 l 1676 163 b 1675 201 1656 174 1658 190 b 1800 393 1751 250 1789 303 l 1829 647 b 1747 861 1839 739 1813 810 b 1508 938 1682 913 1601 938 b 1269 861 1414 938 1335 913 b 1186 647 1204 810 1176 739 l 1215 393 b 1342 200 1226 303 1260 257 b 1342 163 1360 189 1360 172 m 2233 -44 b 2225 -37 2228 -44 2225 -42 l 2225 -25 b 2233 -18 2225 -21 2228 -18 l 2672 -18 b 2689 133 2789 -18 2772 92 l 2446 250 b 2443 290 2424 260 2422 278 b 2522 415 2489 317 2515 358 l 2542 592 b 2486 736 2549 654 2531 701 b 2325 788 2442 771 2388 788 b 2163 736 2261 788 2207 771 b 2107 592 2118 701 2100 654 l 2128 415 b 2215 283 2135 350 2156 324 b 2211 253 2228 274 2226 263 l 1988 143 b 1978 147 1982 140 1979 142 l 1972 157 b 1975 167 1969 161 1971 165 l 2188 271 b 2101 413 2136 308 2108 356 l 2081 588 b 2143 754 2074 658 2094 714 b 2325 814 2192 794 2253 814 b 2506 754 2396 814 2457 794 b 2568 588 2554 714 2575 658 l 2549 413 b 2461 271 2542 356 2513 308 l 2700 157 b 2672 -44 2814 108 2815 -50 l 2233 -44 m 994 149 b 999 140 1000 147 1001 144 l 994 129 b 985 125 992 124 989 122 l 753 225 b 761 267 735 235 740 265 b 947 326 829 272 892 292 b 950 336 951 329 951 332 b 865 486 918 376 890 426 b 806 636 839 546 819 596 b 603 786 776 717 708 786 b 401 636 497 786 429 717 b 342 486 386 596 367 546 b 257 336 315 426 288 376 b 258 326 254 333 254 331 b 446 267 314 292 376 272 b 453 225 467 265 471 235 l 235 133 b 249 -19 151 100 128 -19 l 785 -19 b 792 -26 789 -19 792 -22 l 792 -39 b 785 -46 792 -43 789 -46 l 249 -46 b 224 157 99 -46 113 111 l 428 243 b 244 304 358 250 297 271 b 236 353 224 317 221 333 b 321 503 267 392 294 442 b 381 657 346 564 365 615 b 603 813 410 739 485 813 b 825 657 721 813 796 739 b 886 503 840 615 860 564 b 969 353 911 442 939 392 b 961 304 985 333 982 317 b 782 242 908 271 849 250 "},"u":{"ha":2814,"x_min":0,"x_max":0,"o":"m 1235 182 b 1103 389 1157 233 1113 303 l 1074 644 b 1164 881 1063 744 1093 824 b 1422 965 1235 938 1321 965 b 1769 644 1610 971 1792 851 l 1740 389 b 1608 183 1729 301 1685 232 l 1964 13 b 1926 -269 2119 -62 2129 -269 l 917 -269 b 783 -215 853 -269 808 -251 b 775 -92 758 -178 756 -137 b 879 13 794 -46 829 -11 m 892 -11 b 917 -243 764 -72 740 -243 l 1926 -243 b 1951 -11 2103 -243 2079 -72 l 1589 163 b 1589 201 1571 172 1572 190 b 1714 393 1665 250 1703 303 l 1743 647 b 1661 861 1753 739 1726 810 b 1422 938 1596 913 1515 938 b 1183 861 1328 938 1249 913 b 1100 647 1118 810 1090 739 l 1129 393 b 1256 200 1140 300 1174 257 b 1256 163 1272 189 1274 172 m 269 -44 b 243 157 128 -50 131 108 l 481 271 b 394 413 429 308 401 356 l 374 588 b 436 754 367 658 388 714 b 618 814 485 794 546 814 b 800 754 690 814 751 794 b 861 588 849 714 869 658 l 842 413 b 754 271 835 356 806 308 l 967 167 b 971 157 971 165 972 163 l 965 147 b 956 143 963 143 960 142 l 731 253 b 726 283 715 263 714 274 b 815 415 786 324 808 350 l 835 592 b 779 736 842 654 824 701 b 618 788 735 771 681 788 b 456 736 554 788 500 771 b 400 592 411 701 393 654 l 421 415 b 500 290 428 358 454 317 b 497 250 518 278 518 260 l 254 133 b 269 -18 168 97 154 -22 l 710 -18 b 717 -25 714 -18 717 -21 l 717 -37 b 710 -44 717 -42 714 -44 m 2146 -44 b 2139 -37 2142 -44 2139 -42 l 2139 -25 b 2146 -18 2139 -21 2142 -18 l 2586 -18 b 2601 133 2703 -22 2688 97 l 2360 250 b 2357 290 2338 260 2336 278 b 2436 415 2403 317 2429 358 l 2456 592 b 2400 736 2463 654 2444 701 b 2239 788 2356 771 2301 788 b 2076 736 2175 788 2121 771 b 2021 592 2032 701 2014 654 l 2040 415 b 2129 283 2047 350 2069 324 b 2125 253 2142 274 2140 263 l 1900 143 b 1890 147 1896 140 1893 142 l 1886 157 b 1889 167 1883 163 1885 165 l 2101 271 b 2014 413 2050 308 2021 356 l 1994 588 b 2057 754 1988 658 2008 714 b 2239 814 2106 794 2167 814 b 2419 754 2310 814 2371 794 b 2482 588 2468 714 2489 658 l 2463 413 b 2375 271 2456 356 2426 308 l 2614 157 b 2586 -44 2728 108 2729 -50 l 2146 -44 "},"v":{"ha":1521,"x_min":0,"x_max":0,"o":"m 775 -140 l 928 -140 b 935 -149 932 -140 935 -143 l 935 -160 b 928 -167 935 -164 932 -167 l 596 -167 b 589 -160 592 -167 589 -164 l 589 -149 b 596 -140 589 -143 592 -140 l 749 -140 l 749 110 b 408 353 593 115 463 207 b 161 624 288 431 200 529 b 278 851 115 733 136 851 l 383 851 l 383 931 b 424 972 383 953 401 972 l 1100 972 b 1140 931 1122 972 1140 953 l 1140 851 l 1244 851 b 1360 624 1383 851 1406 733 b 1115 354 1319 522 1238 433 b 775 110 1064 208 931 115 m 424 944 b 410 931 414 944 410 940 l 410 513 b 507 243 410 404 442 314 b 761 136 571 172 656 136 b 1017 243 867 136 951 172 b 1114 513 1082 314 1114 404 l 1114 931 b 1100 944 1114 940 1110 944 m 397 392 b 383 513 388 426 383 467 l 383 825 l 278 825 b 186 633 157 826 146 725 b 397 392 222 544 293 464 m 1140 825 l 1140 513 b 1126 393 1140 467 1136 428 b 1336 633 1228 464 1299 544 b 1244 825 1374 725 1364 826 m 417 -271 b 410 -264 413 -271 410 -268 l 410 -251 b 417 -244 410 -247 413 -244 l 1106 -244 b 1114 -251 1111 -244 1114 -247 l 1114 -264 b 1106 -271 1114 -268 1111 -271 l 417 -271 "},"w":{"ha":1072,"x_min":0,"x_max":0,"o":"m 168 1001 b 165 1011 164 1004 163 1007 l 171 1021 b 182 1024 172 1025 176 1026 l 436 879 b 457 843 450 871 457 858 l 457 701 l 894 701 b 935 660 917 701 936 683 b 775 -229 936 386 775 8 b 735 -269 775 -251 757 -269 l 342 -269 b 300 -229 319 -269 300 -251 b 140 660 299 8 142 386 b 181 701 139 683 158 701 l 431 701 l 431 843 b 424 856 431 850 428 854 m 200 392 b 431 363 274 353 350 343 l 431 675 l 181 675 b 167 660 171 675 167 669 b 200 392 168 581 179 492 m 457 675 l 457 371 b 535 399 468 375 494 383 b 642 438 581 417 617 431 b 747 446 667 444 701 447 b 879 410 792 444 836 432 b 908 660 897 506 907 589 b 894 675 910 667 904 675 m 874 383 b 694 419 811 417 754 429 b 622 403 664 414 640 408 b 544 374 604 396 578 386 b 439 336 499 356 463 343 b 336 328 414 329 379 326 b 208 358 293 329 250 339 b 254 179 215 326 231 267 b 307 -46 278 92 294 17 b 326 -229 318 -108 325 -169 b 342 -243 326 -239 332 -243 l 735 -243 b 749 -229 744 -243 749 -239 b 826 193 753 -106 781 21 b 874 383 849 279 864 343 "},"x":{"ha":1058,"x_min":0,"x_max":0,"o":"m 919 107 b 139 107 919 -407 139 -407 l 139 588 b 919 588 139 1101 919 1101 m 893 588 b 165 588 893 1067 165 1067 l 165 107 b 354 -214 165 -44 247 -164 b 529 -251 408 -239 467 -251 b 839 -92 656 -251 767 -204 b 893 107 875 -35 893 31 m 517 747 b 524 754 517 751 519 754 l 535 754 b 543 747 540 754 543 751 l 543 496 b 535 488 543 490 540 488 l 524 488 b 517 496 519 488 517 490 "},"y":{"ha":1451,"x_min":0,"x_max":0,"o":"m 586 525 b 617 736 554 618 569 657 b 657 871 647 792 661 836 b 594 1000 653 906 632 949 b 596 1011 592 1004 592 1007 l 606 1018 b 615 1015 610 1021 613 1019 b 685 874 658 958 681 911 b 639 722 689 835 674 785 b 610 535 597 649 585 618 b 606 525 613 531 611 528 l 594 521 b 586 525 590 519 588 521 m 786 525 b 817 736 754 618 769 657 b 858 872 847 792 861 838 b 794 1000 854 907 833 949 b 796 1011 792 1004 792 1007 l 806 1018 b 815 1015 810 1021 813 1019 b 885 874 858 958 881 911 b 839 722 889 835 874 785 b 799 633 817 685 803 654 b 811 535 794 611 799 578 b 807 525 813 531 811 528 l 796 521 b 786 525 790 519 788 521 m 1056 463 b 1097 422 1078 463 1097 444 l 1097 379 l 1164 379 b 1164 88 1361 381 1361 86 l 1071 88 b 322 250 935 -292 322 -239 l 322 422 b 364 463 322 444 342 463 m 364 436 b 349 422 354 436 349 432 l 349 250 b 1069 250 349 -264 1069 -264 l 1069 422 b 1056 436 1069 432 1065 436 m 1097 353 l 1097 250 b 1079 114 1097 203 1092 157 l 1164 114 b 1288 233 1240 114 1288 174 b 1164 353 1288 293 1240 353 m 146 -285 b 139 -276 142 -285 139 -282 l 139 -265 b 146 -257 139 -260 142 -257 l 1274 -257 b 1281 -265 1278 -257 1281 -260 l 1281 -276 b 1274 -285 1281 -282 1278 -285 "},"z":{"ha":1381,"x_min":0,"x_max":0,"o":"m 333 678 b 396 811 333 732 354 776 b 536 847 436 846 483 857 l 1160 731 b 1242 656 1214 719 1242 694 l 1242 -86 b 1203 -125 1242 -107 1224 -125 l 349 -125 b 200 -64 290 -125 240 -104 b 139 86 160 -22 139 28 l 139 410 b 196 553 139 464 158 513 b 333 619 233 593 279 615 m 360 619 l 1151 619 b 1154 704 1231 619 1243 686 l 532 821 b 413 790 486 829 447 819 b 360 678 378 761 360 724 m 1215 611 b 1151 593 1199 599 1178 593 l 349 593 b 219 540 297 593 254 575 b 165 410 183 504 165 461 l 165 86 b 219 -44 165 35 183 -8 b 349 -99 254 -81 297 -99 l 1203 -99 b 1215 -86 1211 -99 1215 -94 m 285 285 b 285 181 256 256 256 208 b 389 181 313 151 360 151 b 389 285 417 208 417 256 b 285 285 360 313 313 313 m 372 268 b 301 197 419 224 344 149 b 372 268 253 240 328 315 "}}}
